HIERARCHY
ROOT Hip
{
	OFFSET 1.592892 -1.882003 0.049340
	CHANNELS 6 Xposition Yposition Zposition Xrotation Yrotation Zrotation
	JOINT LowerSpine
	{
		OFFSET -0.000000 0.154692 0.259874
		CHANNELS 6 Xposition Yposition Zposition Xrotation Yrotation Zrotation
		JOINT MiddleSpine
		{
			OFFSET -0.000000 -0.011152 0.237154
			CHANNELS 3 Xrotation Yrotation Zrotation
			JOINT Chest
			{
				OFFSET 0.000000 0.058786 0.293449
				CHANNELS 3 Xrotation Yrotation Zrotation
				JOINT Neck
				{
					OFFSET -0.000000 0.012376 0.661279
					CHANNELS 6 Xposition Yposition Zposition Xrotation Yrotation Zrotation
					JOINT Head
					{
						OFFSET -0.000003 -0.101573 0.373433
						CHANNELS 3 Xrotation Yrotation Zrotation
						End Site
						{
							OFFSET 0.000000 -0.001601 0.053629
						}
					}
				}
				JOINT LClavicle
				{
					OFFSET 0.060085 -0.196776 0.638168
					CHANNELS 6 Xposition Yposition Zposition Xrotation Yrotation Zrotation
					JOINT LShoulder
					{
						OFFSET 0.351028 0.148114 0.091535
						CHANNELS 3 Xrotation Yrotation Zrotation
						JOINT LForearm
						{
							OFFSET 0.828500 0.007179 -0.002937
							CHANNELS 3 Xrotation Yrotation Zrotation
							JOINT LHand
							{
								OFFSET 0.691143 0.004141 0.002005
								CHANNELS 3 Xrotation Yrotation Zrotation
								JOINT LFinger1
								{
									OFFSET 0.267868 -0.074399 0.023427
									CHANNELS 6 Xposition Yposition Zposition Xrotation Yrotation Zrotation
									JOINT LFinger11
									{
										OFFSET 0.100195 -0.017654 -0.024433
										CHANNELS 3 Xrotation Yrotation Zrotation
										JOINT LFinger12
										{
											OFFSET 0.068401 -0.012057 -0.016682
											CHANNELS 3 Xrotation Yrotation Zrotation
											End Site
											{
												OFFSET 0.050801 -0.008241 -0.015164
											}
										}
									}
								}
								JOINT LFinger2
								{
									OFFSET 0.271866 -0.006476 0.027053
									CHANNELS 6 Xposition Yposition Zposition Xrotation Yrotation Zrotation
									JOINT LFinger21
									{
										OFFSET 0.123886 0.000731 0.000344
										CHANNELS 3 Xrotation Yrotation Zrotation
										JOINT LFinger22
										{
											OFFSET 0.068670 0.000417 0.000210
											CHANNELS 3 Xrotation Yrotation Zrotation
											End Site
											{
												OFFSET 0.053519 -0.000073 -0.003780
											}
										}
									}
								}
								JOINT LFinger3
								{
									OFFSET 0.257650 0.060956 0.018054
									CHANNELS 6 Xposition Yposition Zposition Xrotation Yrotation Zrotation
									JOINT LFinger31
									{
										OFFSET 0.112414 0.007039 -0.005692
										CHANNELS 3 Xrotation Yrotation Zrotation
										JOINT LFinger32
										{
											OFFSET 0.064058 0.004024 -0.003223
											CHANNELS 3 Xrotation Yrotation Zrotation
											End Site
											{
												OFFSET 0.053193 0.002514 -0.006540
											}
										}
									}
								}
								JOINT LFinger4
								{
									OFFSET 0.239089 0.105269 -0.018169
									CHANNELS 6 Xposition Yposition Zposition Xrotation Yrotation Zrotation
									JOINT LFinger41
									{
										OFFSET 0.069146 0.019087 -0.014420
										CHANNELS 3 Xrotation Yrotation Zrotation
										JOINT LFinger42
										{
											OFFSET 0.050705 0.014006 -0.010559
											CHANNELS 3 Xrotation Yrotation Zrotation
											End Site
											{
												OFFSET 0.050514 0.011590 -0.013879
											}
										}
									}
								}
								JOINT LFinger0
								{
									OFFSET 0.055412 -0.042009 -0.041941
									CHANNELS 6 Xposition Yposition Zposition Xrotation Yrotation Zrotation
									JOINT LFinger01
									{
										OFFSET 0.103169 -0.077784 -0.033880
										CHANNELS 3 Xrotation Yrotation Zrotation
										JOINT LFinger02
										{
											OFFSET 0.067933 -0.048944 -0.024310
											CHANNELS 3 Xrotation Yrotation Zrotation
											End Site
											{
												OFFSET 0.042584 -0.029159 -0.014659
											}
										}
									}
								}
							}
						}
					}
				}
				JOINT RClavicle
				{
					OFFSET -0.060085 -0.196776 0.638168
					CHANNELS 6 Xposition Yposition Zposition Xrotation Yrotation Zrotation
					JOINT RShoulder
					{
						OFFSET -0.351089 0.148140 0.091552
						CHANNELS 3 Xrotation Yrotation Zrotation
						JOINT RForearm
						{
							OFFSET -0.828500 0.007179 -0.002937
							CHANNELS 3 Xrotation Yrotation Zrotation
							JOINT RHand
							{
								OFFSET -0.691144 0.004141 0.002005
								CHANNELS 3 Xrotation Yrotation Zrotation
								JOINT RFinger1
								{
									OFFSET -0.267870 -0.074399 0.023431
									CHANNELS 6 Xposition Yposition Zposition Xrotation Yrotation Zrotation
									JOINT RFinger11
									{
										OFFSET -0.100195 -0.017654 -0.024433
										CHANNELS 3 Xrotation Yrotation Zrotation
										JOINT RFinger12
										{
											OFFSET -0.068401 -0.012057 -0.016688
											CHANNELS 3 Xrotation Yrotation Zrotation
											End Site
											{
												OFFSET -0.050801 -0.008241 -0.015164
											}
										}
									}
								}
								JOINT RFinger2
								{
									OFFSET -0.271866 -0.006479 0.027054
									CHANNELS 6 Xposition Yposition Zposition Xrotation Yrotation Zrotation
									JOINT RFinger21
									{
										OFFSET -0.123886 0.000731 0.000347
										CHANNELS 3 Xrotation Yrotation Zrotation
										JOINT RFinger22
										{
											OFFSET -0.068670 0.000420 0.000210
											CHANNELS 3 Xrotation Yrotation Zrotation
											End Site
											{
												OFFSET -0.053519 -0.000073 -0.003780
											}
										}
									}
								}
								JOINT RFinger3
								{
									OFFSET -0.257650 0.060956 0.018058
									CHANNELS 6 Xposition Yposition Zposition Xrotation Yrotation Zrotation
									JOINT RFinger31
									{
										OFFSET -0.112414 0.007039 -0.005692
										CHANNELS 3 Xrotation Yrotation Zrotation
										JOINT RFinger32
										{
											OFFSET -0.064061 0.004024 -0.003223
											CHANNELS 3 Xrotation Yrotation Zrotation
											End Site
											{
												OFFSET -0.053193 0.002514 -0.006540
											}
										}
									}
								}
								JOINT RFinger4
								{
									OFFSET -0.239089 0.105269 -0.018169
									CHANNELS 6 Xposition Yposition Zposition Xrotation Yrotation Zrotation
									JOINT RFinger41
									{
										OFFSET -0.069146 0.019088 -0.014420
										CHANNELS 3 Xrotation Yrotation Zrotation
										JOINT RFinger42
										{
											OFFSET -0.050705 0.014006 -0.010556
											CHANNELS 3 Xrotation Yrotation Zrotation
											End Site
											{
												OFFSET -0.050514 0.011591 -0.013879
											}
										}
									}
								}
								JOINT RFinger0
								{
									OFFSET -0.055412 -0.042006 -0.041938
									CHANNELS 6 Xposition Yposition Zposition Xrotation Yrotation Zrotation
									JOINT RFinger01
									{
										OFFSET -0.103169 -0.077787 -0.033886
										CHANNELS 3 Xrotation Yrotation Zrotation
										JOINT RFinger02
										{
											OFFSET -0.067934 -0.048944 -0.024307
											CHANNELS 3 Xrotation Yrotation Zrotation
											End Site
											{
												OFFSET -0.042585 -0.029159 -0.014659
											}
										}
									}
								}
							}
						}
					}
				}
			}
		}
	}
	JOINT RThigh
	{
		OFFSET -0.307261 0.025206 0.117468
		CHANNELS 6 Xposition Yposition Zposition Xrotation Yrotation Zrotation
		JOINT RShin
		{
			OFFSET -0.022246 0.000000 -1.209169
			CHANNELS 3 Xrotation Yrotation Zrotation
			JOINT RFoot
			{
				OFFSET 0.000000 0.000000 -1.187332
				CHANNELS 3 Xrotation Yrotation Zrotation
				JOINT RToe
				{
					OFFSET 0.000000 -0.272888 -0.130497
					CHANNELS 3 Xrotation Yrotation Zrotation
					End Site
					{
						OFFSET 0.000000 -0.053652 0.000000
					}
				}
			}
		}
	}
	JOINT LThigh
	{
		OFFSET 0.307258 0.025206 0.117477
		CHANNELS 6 Xposition Yposition Zposition Xrotation Yrotation Zrotation
		JOINT LShin
		{
			OFFSET 0.022246 0.000000 -1.209177
			CHANNELS 3 Xrotation Yrotation Zrotation
			JOINT LFoot
			{
				OFFSET -0.000000 0.000000 -1.187332
				CHANNELS 3 Xrotation Yrotation Zrotation
				JOINT LToe
				{
					OFFSET -0.000000 -0.272891 -0.130500
					CHANNELS 3 Xrotation Yrotation Zrotation
					End Site
					{
						OFFSET 0.000000 -0.053652 0.000000
					}
				}
			}
		}
	}
}
MOTION
Frames: 4
Frame Time: 0.041667
2.294216 -1.212935 1.903123 -27.854343 16.113135 -201.189082 -0.000000 0.154692 0.259874 0.000016 0.000002 -0.000010 -3.019484 2.200419 -1.098316 -9.941305 7.861921 -3.246833 -0.000000 0.012376 0.661279 -20.123691 -8.860181 -4.191173 -1.967825 -0.911160 -0.043704 0.060085 -0.196777 0.638168 -0.000032 1.936031 0.000043 4.227703 8.697495 13.635539 0.000003 0.000013 1.694665 -0.000001 0.000002 -0.000003 0.267868 -0.074399 0.023428 0.000011 0.000013 0.000016 0.000018 0.000016 0.000047 0.000052 0.000025 0.000119 0.271866 -0.006476 0.027053 0.000015 0.000017 0.000013 -0.000013 -0.000027 -0.000028 0.000007 -0.000041 -0.000057 0.257651 0.060956 0.018054 0.000015 0.000015 0.000005 0.000017 0.000004 0.000031 0.000004 0.000022 0.000057 0.239090 0.105269 -0.018169 0.000009 0.000007 0.000004 -0.000009 0.000003 0.000008 -0.000008 -0.000004 -0.000001 0.055412 -0.042008 -0.041941 0.000029 0.000009 0.000016 0.000015 -0.000012 0.000014 -0.000009 0.000002 -0.000009 -0.060086 -0.196776 0.638168 -0.000018 -6.962508 0.000059 -71.515284 2.693295 -41.788450 0.187570 0.171985 99.016248 -0.000018 -0.000469 0.000029 -0.267871 -0.074398 0.023430 -0.000008 -0.000002 -0.000004 -0.000016 0.000029 0.000013 -0.000004 0.000008 0.000011 -0.271866 -0.006478 0.027053 -0.000001 -0.000019 -0.000015 0.000006 -0.000005 0.000010 0.000004 0.000001 0.000006 -0.257650 0.060957 0.018057 -0.000005 -0.000004 -0.000017 0.000004 -0.000002 -0.000010 0.000007 0.000015 0.000009 -0.239090 0.105270 -0.018169 0.000001 0.000007 -0.000001 0.000006 0.000001 0.000020 0.000002 -0.000009 -0.000001 -0.055412 -0.042006 -0.041939 -0.000017 -0.000003 -0.000015 -0.000020 -0.000013 0.000014 0.000009 -0.000012 -0.000009 -0.292236 0.110535 0.299423 -65.856588 -9.222613 21.239151 67.102449 -0.000008 0.000006 -5.878292 1.165995 -2.151486 -14.464671 0.000009 -0.000006 0.314117 0.039187 0.127843 -0.917297 -25.308788 -0.768636 2.767424 -0.000003 0.000002 2.008548 0.058095 -0.126672 -28.916408 0.000016 -0.000001 
2.267694 -1.230349 1.871427 -28.400982 16.529150 -201.442878 -0.000000 0.154692 0.259874 0.000018 0.000003 -0.000007 -3.004321 2.111972 -1.285340 -9.749223 7.670641 -4.013646 -0.000000 0.012376 0.661279 -20.983873 -11.702970 -5.649498 -2.011222 -0.806838 -0.039211 0.060086 -0.196776 0.638168 -0.000025 1.404444 0.000039 3.664280 4.920970 7.425033 0.000003 0.000012 3.042841 -0.000003 0.000001 -0.000005 0.267867 -0.074399 0.023428 0.000009 0.000014 0.000016 0.000018 0.000014 0.000049 0.000058 0.000024 0.000118 0.271866 -0.006476 0.027053 0.000011 0.000018 0.000015 -0.000013 -0.000026 -0.000026 0.000008 -0.000041 -0.000061 0.257651 0.060956 0.018054 0.000008 0.000015 0.000004 0.000018 0.000008 0.000030 0.000003 0.000025 0.000057 0.239090 0.105269 -0.018169 0.000004 0.000009 0.000003 -0.000009 0.000006 0.000009 -0.000004 -0.000003 -0.000000 0.055412 -0.042008 -0.041941 0.000022 0.000014 0.000012 0.000011 -0.000005 0.000015 -0.000011 0.000003 -0.000009 -0.060085 -0.196776 0.638168 -0.000012 -7.210820 0.000062 -67.802291 0.205488 -44.772570 0.187653 0.155464 93.289135 -0.000011 -0.000446 0.000027 -0.267870 -0.074398 0.023430 -0.000010 -0.000004 -0.000003 -0.000015 0.000028 0.000013 -0.000002 0.000004 0.000016 -0.271866 -0.006478 0.027054 -0.000002 -0.000023 -0.000017 0.000004 0.000002 0.000013 -0.000004 0.000001 0.000004 -0.257650 0.060957 0.018057 -0.000004 -0.000008 -0.000016 0.000006 -0.000004 -0.000013 0.000008 0.000015 0.000008 -0.239089 0.105269 -0.018168 -0.000004 0.000004 -0.000004 0.000006 -0.000004 0.000007 0.000001 -0.000010 -0.000000 -0.055412 -0.042006 -0.041938 -0.000027 -0.000003 -0.000015 -0.000018 -0.000009 0.000009 0.000009 -0.000017 0.000003 -0.290961 0.111645 0.298744 -68.681124 -9.005237 20.659393 69.573891 -0.000006 0.000004 -6.652748 0.822543 -1.488077 -14.262359 0.000010 -0.000006 0.314299 0.040963 0.130428 -0.888811 -25.682958 -0.720829 2.383463 0.000002 0.000006 0.992986 0.424700 -0.908436 -28.455273 0.000021 -0.000001 
2.241049 -1.247034 1.846375 -29.000768 16.977902 -201.692836 -0.000000 0.154691 0.259874 0.000015 0.000001 -0.000009 -2.993073 2.017970 -1.470454 -9.471313 7.428559 -5.028164 -0.000001 0.012376 0.661279 -21.601848 -13.525557 -6.625359 -2.054839 -0.709351 -0.034939 0.060085 -0.196776 0.638168 -0.000019 0.876795 0.000042 2.938298 1.842243 1.997215 -0.002234 0.003593 3.665827 -0.000004 0.000002 -0.000000 0.267867 -0.074399 0.023428 0.000012 0.000013 0.000014 0.000022 0.000014 0.000045 0.000051 0.000028 0.000124 0.271866 -0.006476 0.027053 0.000013 0.000016 0.000012 -0.000018 -0.000029 -0.000026 0.000009 -0.000042 -0.000060 0.257651 0.060956 0.018054 0.000014 0.000015 0.000004 0.000018 0.000007 0.000029 0.000006 0.000024 0.000055 0.239090 0.105269 -0.018169 0.000009 0.000009 0.000005 -0.000005 0.000007 0.000009 -0.000002 -0.000004 -0.000004 0.055412 -0.042008 -0.041942 0.000023 0.000014 0.000004 0.000007 -0.000008 0.000015 -0.000005 0.000003 -0.000018 -0.060086 -0.196776 0.638168 -0.000004 -7.382504 0.000057 -64.522769 -3.005580 -46.207022 0.186663 0.140607 88.277244 -0.000015 -0.000424 0.000026 -0.267870 -0.074398 0.023430 -0.000009 -0.000005 -0.000005 -0.000016 0.000025 0.000012 -0.000001 0.000004 0.000017 -0.271866 -0.006479 0.027053 0.000002 -0.000019 -0.000016 0.000001 0.000000 0.000011 0.000002 -0.000001 0.000008 -0.257650 0.060957 0.018057 -0.000001 -0.000007 -0.000018 0.000007 -0.000005 -0.000017 0.000009 0.000012 0.000007 -0.239090 0.105269 -0.018168 -0.000004 0.000006 -0.000003 0.000014 -0.000003 0.000009 0.000000 -0.000009 -0.000002 -0.055412 -0.042006 -0.041939 -0.000026 -0.000003 -0.000017 -0.000020 -0.000012 0.000015 0.000010 -0.000014 -0.000003 -0.289675 0.112669 0.298009 -71.324599 -8.646143 20.084950 71.466373 -0.000007 0.000006 -6.834385 0.432894 -0.780226 -14.315595 0.000008 -0.000006 0.314495 0.042891 0.133239 -1.140365 -25.894033 -0.737037 2.158905 0.000004 0.000003 0.144121 0.730471 -1.519749 -28.060318 0.000019 -0.000005 
2.212120 -1.264027 1.825121 -29.587188 17.475042 -201.961126 -0.000000 0.154692 0.259874 0.000009 0.000001 -0.000008 -2.986475 1.917428 -1.652633 -9.168697 7.148183 -6.208812 -0.000000 0.012376 0.661279 -21.965002 -14.534415 -7.180399 -2.097509 -0.619054 -0.030929 0.060085 -0.196776 0.638168 -0.000024 0.329142 0.000033 2.177118 -0.623639 -2.823217 -0.003091 0.004201 3.774714 -0.000002 0.000001 -0.000004 0.267868 -0.074399 0.023428 0.000009 0.000011 0.000018 0.000018 0.000016 0.000046 0.000046 0.000025 0.000115 0.271866 -0.006476 0.027053 0.000014 0.000018 0.000014 -0.000018 -0.000028 -0.000027 0.000008 -0.000041 -0.000055 0.257651 0.060956 0.018054 0.000014 0.000014 0.000007 0.000017 0.000006 0.000029 0.000008 0.000024 0.000061 0.239089 0.105269 -0.018169 0.000006 0.000007 0.000005 -0.000008 0.000007 0.000007 -0.000004 -0.000006 -0.000004 0.055412 -0.042008 -0.041941 0.000023 0.000020 0.000012 0.000007 -0.000009 0.000019 -0.000008 0.000004 -0.000013 -0.060085 -0.196776 0.638168 -0.000008 -7.456867 0.000062 -62.973067 -6.264374 -45.923033 0.184901 0.127528 83.734670 -0.000018 -0.000398 0.000023 -0.267870 -0.074398 0.023430 -0.000006 -0.000004 -0.000006 -0.000016 0.000026 0.000017 -0.000002 0.000006 0.000017 -0.271867 -0.006479 0.027053 0.000002 -0.000021 -0.000017 0.000005 0.000004 0.000011 0.000000 -0.000003 0.000005 -0.257651 0.060957 0.018057 -0.000000 -0.000008 -0.000019 0.000000 -0.000003 -0.000015 0.000002 0.000016 0.000010 -0.239089 0.105269 -0.018169 -0.000003 0.000007 -0.000001 0.000011 0.000001 0.000012 -0.000002 -0.000007 0.000002 -0.055412 -0.042006 -0.041939 -0.000020 -0.000009 -0.000018 -0.000016 -0.000017 0.000013 0.000009 -0.000013 0.000000 -0.288379 0.113604 0.297214 -73.846243 -8.206070 19.664041 72.967922 -0.000005 0.000007 -6.717453 0.003076 -0.005899 -14.428211 0.000008 -0.000010 0.314710 0.044996 0.136309 -1.774617 -25.958387 -0.844096 2.470835 -0.000000 0.000005 0.047196 0.857909 -1.789250 -28.478252 0.000019 0.000004 
